# xmcd
#
# Track frame offsets:
# 150
# 12463
# 25609
# 36673
# 49212
# 62255
# 73868
# 85714
# 96520
# 108711
# 121036
# 131834
# 142641
# 154536
#
# Disc length: 2205 seconds
#
#
# Revision: 0
# Processed by: cddbd v1.5.2PL0 Copyright (c) Steve Scherf et al.
# Submitted via: FreeRIP 2.90 
#
DISCID=b9089b0e
DTITLE=Hank Williams - Greatest Hits
DYEAR=2007
DGENRE=Country
TTITLE0=Cold, Cold Heart
TTITLE1=Hey Good Lookin'
TTITLE2=Crazy Heart
TTITLE3=I'm So Lonesome I Could Cry
TTITLE4=Jambalaya (On the Bayou)
TTITLE5=Kaw-liga
TTITLE6=Long Gone, Lonesome Blues
TTITLE7=Why Don't You Love Me?
TTITLE8=Your Cheatin' Heart
TTITLE9=Lovesick Blues
TTITLE10=I Can't Help It If I'm Still In Love With You
TTITLE11=Moanin' the Blues
TTITLE12=Take These Chains From My Heart
TTITLE13=I'll Never Get Out of This World Alive
EXTD=
EXTT0=
EXTT1=
EXTT2=
EXTT3=
EXTT4=
EXTT5=
EXTT6=
EXTT7=
EXTT8=
EXTT9=
EXTT10=
EXTT11=
EXTT12=
EXTT13=
PLAYORDER=
